<svg xmlns="http://www.w3.org/2000/svg" width="1200" height="390" viewBox="0 0 1200 390" role="img" aria-labelledby="title desc">
  <title id="title">StefDevs operating brief</title>
  <desc id="desc">A premium dark operating brief showing how StefDevs turns messy workflows into clear next actions.</desc>
  <defs>
    <linearGradient id="bg" x1="0" x2="1" y1="0" y2="1">
      <stop offset="0" stop-color="#0a0a09" />
      <stop offset="1" stop-color="#14110a" />
    </linearGradient>
    <linearGradient id="card" x1="0" x2="1" y1="0" y2="1">
      <stop offset="0" stop-color="#161614" />
      <stop offset="1" stop-color="#0b0b0a" />
    </linearGradient>
    <linearGradient id="rule" x1="0" x2="1" y1="0" y2="0">
      <stop offset="0" stop-color="#f2bd55" stop-opacity="0" />
      <stop offset="0.5" stop-color="#f2bd55" stop-opacity="0.9" />
      <stop offset="1" stop-color="#f2bd55" stop-opacity="0" />
    </linearGradient>
  </defs>

  <rect width="1200" height="390" rx="24" fill="url(#bg)" />
  <rect x="1" y="1" width="1198" height="388" rx="23" fill="none" stroke="#ffffff" stroke-opacity="0.1" />

  <g opacity="0.08" transform="translate(902 -34) scale(0.2)">
    <path fill="#ffffff" fill-rule="evenodd" d="M 737.00 684.00 L 709.00 712.00 L 678.00 685.00 L 636.00 804.00 L 707.00 870.00 L 780.00 807.00 Z M 783.00 633.00 L 750.00 674.00 L 792.00 761.00 L 878.00 779.00 Z M 633.00 632.00 L 538.00 779.00 L 624.00 761.00 L 666.00 673.00 Z M 636.00 299.00 L 668.00 323.00 L 625.00 356.00 L 649.00 354.00 L 633.00 438.00 L 709.00 535.00 L 768.00 457.00 L 748.00 404.00 L 751.00 379.00 L 783.00 361.00 L 803.00 362.00 L 815.00 372.00 L 818.00 349.00 L 807.00 333.00 L 776.00 326.00 L 749.00 301.00 Z M 728.00 325.00 L 770.00 327.00 L 743.00 335.00 Z M 1266.00 221.00 L 984.00 341.00 L 932.00 437.00 L 801.00 602.00 L 1109.00 447.00 L 1171.00 362.00 L 989.00 412.00 L 1200.00 324.00 Z M 150.00 221.00 L 216.00 324.00 L 430.00 413.00 L 246.00 362.00 L 306.00 446.00 L 614.00 601.00 L 484.00 436.00 L 434.00 342.00 Z M 28.00 28.00 L 128.00 186.00 L 444.00 335.00 L 499.00 433.00 L 707.00 690.00 L 920.00 430.00 L 971.00 336.00 L 1287.00 186.00 L 1387.00 31.00 L 905.00 259.00 L 847.00 391.00 L 707.00 557.00 L 570.00 392.00 L 511.00 258.00 Z" />
  </g>

  <text x="56" y="64" fill="#f2bd55" font-family="ui-monospace, SFMono-Regular, Menlo, Consolas, monospace" font-size="13" font-weight="750" letter-spacing="1.8">STEFDEVS OPERATING BRIEF</text>
  <text x="56" y="108" fill="#f7f4ea" font-family="Inter, ui-sans-serif, system-ui, -apple-system, BlinkMacSystemFont, Segoe UI, sans-serif" font-size="32" font-weight="780">From unclear work to practical systems.</text>
  <text x="56" y="142" fill="#bdb8aa" font-family="Inter, ui-sans-serif, system-ui, sans-serif" font-size="17">The focus is not method theatre. It is making the next action visible, lawful, useful, and operable.</text>
  <path d="M56 170 H1138" stroke="url(#rule)" stroke-width="1.5" />

  <g transform="translate(56 204)" font-family="Inter, ui-sans-serif, system-ui, sans-serif">
    <g>
      <rect x="0" y="0" width="250" height="126" rx="16" fill="url(#card)" stroke="#ffffff" stroke-opacity="0.11" />
      <text x="22" y="36" fill="#f2bd55" font-size="13" font-weight="780">01</text>
      <text x="62" y="36" fill="#f7f4ea" font-size="19" font-weight="760">Clarify the drag</text>
      <text x="22" y="72" fill="#bdb8aa" font-size="14">Map the real workflow, weak</text>
      <text x="22" y="95" fill="#bdb8aa" font-size="14">handoffs, constraints, and risk.</text>
    </g>
    <g transform="translate(278 0)">
      <rect x="0" y="0" width="250" height="126" rx="16" fill="url(#card)" stroke="#ffffff" stroke-opacity="0.11" />
      <text x="22" y="36" fill="#f2bd55" font-size="13" font-weight="780">02</text>
      <text x="62" y="36" fill="#f7f4ea" font-size="19" font-weight="760">Compare options</text>
      <text x="22" y="72" fill="#bdb8aa" font-size="14">Separate useful paths from</text>
      <text x="22" y="95" fill="#bdb8aa" font-size="14">expensive or fragile ones.</text>
    </g>
    <g transform="translate(556 0)">
      <rect x="0" y="0" width="250" height="126" rx="16" fill="url(#card)" stroke="#ffffff" stroke-opacity="0.11" />
      <text x="22" y="36" fill="#f2bd55" font-size="13" font-weight="780">03</text>
      <text x="62" y="36" fill="#f7f4ea" font-size="19" font-weight="760">Build the fix</text>
      <text x="22" y="72" fill="#bdb8aa" font-size="14">Process, tracker, automation,</text>
      <text x="22" y="95" fill="#bdb8aa" font-size="14">integration, tool, or clear no.</text>
    </g>
    <g transform="translate(834 0)">
      <rect x="0" y="0" width="250" height="126" rx="16" fill="url(#card)" stroke="#f2bd55" stroke-opacity="0.34" />
      <text x="22" y="36" fill="#f2bd55" font-size="13" font-weight="780">04</text>
      <text x="62" y="36" fill="#f7f4ea" font-size="19" font-weight="760">Leave it operable</text>
      <text x="22" y="72" fill="#bdb8aa" font-size="14">Document decisions, ownership,</text>
      <text x="22" y="95" fill="#bdb8aa" font-size="14">handoff, and next action.</text>
    </g>
  </g>
</svg>
