<svg xmlns="http://www.w3.org/2000/svg" width="1200" height="430" viewBox="0 0 1200 430" role="img" aria-labelledby="title desc">
  <title id="title">StefDevs profile banner</title>
  <desc id="desc">Dark StefDevs banner positioning StefDevs as practical operational intelligence for cleaner workflows and clearer operations.</desc>
  <defs>
    <linearGradient id="bg" x1="0" x2="1" y1="0" y2="1">
      <stop offset="0" stop-color="#050505" />
      <stop offset="0.56" stop-color="#0d0d0b" />
      <stop offset="1" stop-color="#17130b" />
    </linearGradient>
    <linearGradient id="panel" x1="0" x2="1" y1="0" y2="1">
      <stop offset="0" stop-color="#151515" />
      <stop offset="1" stop-color="#090907" />
    </linearGradient>
    <linearGradient id="rule" x1="0" x2="1" y1="0" y2="0">
      <stop offset="0" stop-color="#f6c35b" stop-opacity="0" />
      <stop offset="0.5" stop-color="#f6c35b" stop-opacity="0.92" />
      <stop offset="1" stop-color="#f6c35b" stop-opacity="0" />
    </linearGradient>
    <linearGradient id="edge" x1="0" x2="1" y1="0" y2="0">
      <stop offset="0" stop-color="#ffffff" stop-opacity="0.05" />
      <stop offset="0.52" stop-color="#ffffff" stop-opacity="0.24" />
      <stop offset="1" stop-color="#ffffff" stop-opacity="0.05" />
    </linearGradient>
    <filter id="soft-shadow" x="-20%" y="-20%" width="140%" height="140%">
      <feDropShadow dx="0" dy="18" stdDeviation="18" flood-color="#000000" flood-opacity="0.35" />
    </filter>
  </defs>

  <rect width="1200" height="430" rx="30" fill="url(#bg)" />
  <rect x="1" y="1" width="1198" height="428" rx="29" fill="none" stroke="#ffffff" stroke-opacity="0.11" />

  <g opacity="0.09" transform="translate(770 28) scale(0.34)">
    <path fill="#ffffff" fill-rule="evenodd" d="M 737.00 684.00 L 709.00 712.00 L 678.00 685.00 L 636.00 804.00 L 707.00 870.00 L 780.00 807.00 Z M 783.00 633.00 L 750.00 674.00 L 792.00 761.00 L 878.00 779.00 Z M 633.00 632.00 L 538.00 779.00 L 624.00 761.00 L 666.00 673.00 Z M 636.00 299.00 L 668.00 323.00 L 625.00 356.00 L 649.00 354.00 L 633.00 438.00 L 709.00 535.00 L 768.00 457.00 L 748.00 404.00 L 751.00 379.00 L 783.00 361.00 L 803.00 362.00 L 815.00 372.00 L 818.00 349.00 L 807.00 333.00 L 776.00 326.00 L 749.00 301.00 Z M 728.00 325.00 L 770.00 327.00 L 743.00 335.00 Z M 1266.00 221.00 L 984.00 341.00 L 932.00 437.00 L 801.00 602.00 L 1109.00 447.00 L 1171.00 362.00 L 989.00 412.00 L 1200.00 324.00 Z M 150.00 221.00 L 216.00 324.00 L 430.00 413.00 L 246.00 362.00 L 306.00 446.00 L 614.00 601.00 L 484.00 436.00 L 434.00 342.00 Z M 28.00 28.00 L 128.00 186.00 L 444.00 335.00 L 499.00 433.00 L 707.00 690.00 L 920.00 430.00 L 971.00 336.00 L 1287.00 186.00 L 1387.00 31.00 L 905.00 259.00 L 847.00 391.00 L 707.00 557.00 L 570.00 392.00 L 511.00 258.00 Z" />
  </g>

  <g transform="translate(72 68)" color="#f5f2e8">
    <rect x="47" y="0" width="34" height="21" rx="1" fill="currentColor" />
    <rect x="15" y="38" width="39" height="23" rx="1" fill="currentColor" />
    <rect x="51" y="76" width="27" height="21" rx="1" fill="currentColor" />
    <rect x="13" y="110" width="43" height="25" rx="1" fill="currentColor" />
  </g>

  <text x="180" y="104" fill="#f7f4ea" font-family="Inter, ui-sans-serif, system-ui, -apple-system, BlinkMacSystemFont, Segoe UI, sans-serif" font-size="58" font-weight="820" letter-spacing="0">StefDevs</text>
  <text x="180" y="151" fill="#f2bd55" font-family="Inter, ui-sans-serif, system-ui, -apple-system, BlinkMacSystemFont, Segoe UI, sans-serif" font-size="30" font-weight="720" letter-spacing="0">Cleaner workflows. Clearer operations.</text>
  <text x="180" y="195" fill="#d9d6ca" font-family="Inter, ui-sans-serif, system-ui, -apple-system, BlinkMacSystemFont, Segoe UI, sans-serif" font-size="20">Practical operational intelligence for messy workflows,</text>
  <text x="180" y="225" fill="#d9d6ca" font-family="Inter, ui-sans-serif, system-ui, -apple-system, BlinkMacSystemFont, Segoe UI, sans-serif" font-size="20">systems, sourcing, automation, and follow-through.</text>

  <path d="M180 264 H700" stroke="url(#rule)" stroke-width="2" />

  <g transform="translate(180 294)" font-family="Inter, ui-sans-serif, system-ui, sans-serif">
    <rect x="0" y="0" width="112" height="40" rx="20" fill="#f2bd55" />
    <text x="56" y="26" fill="#090907" font-size="14" font-weight="760" text-anchor="middle">CLARIFY</text>
    <rect x="130" y="0" width="124" height="40" rx="20" fill="none" stroke="#ffffff" stroke-opacity="0.16" />
    <text x="192" y="26" fill="#f7f4ea" font-size="14" font-weight="690" text-anchor="middle">STRUCTURE</text>
    <rect x="272" y="0" width="112" height="40" rx="20" fill="none" stroke="#ffffff" stroke-opacity="0.16" />
    <text x="328" y="26" fill="#f7f4ea" font-size="14" font-weight="690" text-anchor="middle">EXECUTE</text>
    <rect x="402" y="0" width="112" height="40" rx="20" fill="none" stroke="#ffffff" stroke-opacity="0.16" />
    <text x="458" y="26" fill="#f7f4ea" font-size="14" font-weight="690" text-anchor="middle">IMPROVE</text>
  </g>

  <g transform="translate(770 82)" filter="url(#soft-shadow)">
    <rect x="0" y="0" width="330" height="254" rx="18" fill="url(#panel)" stroke="#ffffff" stroke-opacity="0.12" />
    <path d="M26 58 H304" stroke="url(#edge)" stroke-width="1" />
    <text x="26" y="36" fill="#f2bd55" font-family="ui-monospace, SFMono-Regular, Menlo, Consolas, monospace" font-size="13" font-weight="700" letter-spacing="1.8">OPERATING BRIEF</text>
    <g font-family="Inter, ui-sans-serif, system-ui, sans-serif">
      <text x="26" y="92" fill="#f7f4ea" font-size="18" font-weight="760">One messy workflow</text>
      <text x="26" y="122" fill="#bbb6a7" font-size="14">Find where work gets stuck.</text>
      <text x="26" y="152" fill="#bbb6a7" font-size="14">Choose the simplest useful fix.</text>
      <text x="26" y="182" fill="#bbb6a7" font-size="14">Leave a handoff people can run.</text>
    </g>
    <g transform="translate(26 205)" font-family="Inter, ui-sans-serif, system-ui, sans-serif">
      <rect x="0" y="0" width="86" height="28" rx="14" fill="#f2bd55" fill-opacity="0.14" stroke="#f2bd55" stroke-opacity="0.34" />
      <text x="43" y="19" fill="#f5d28a" font-size="12" font-weight="720" text-anchor="middle">CLEAR</text>
      <rect x="98" y="0" width="86" height="28" rx="14" fill="#ffffff" fill-opacity="0.04" stroke="#ffffff" stroke-opacity="0.12" />
      <text x="141" y="19" fill="#dad6ca" font-size="12" font-weight="720" text-anchor="middle">LAWFUL</text>
      <rect x="196" y="0" width="86" height="28" rx="14" fill="#ffffff" fill-opacity="0.04" stroke="#ffffff" stroke-opacity="0.12" />
      <text x="239" y="19" fill="#dad6ca" font-size="12" font-weight="720" text-anchor="middle">OPERABLE</text>
    </g>
  </g>

  <text x="180" y="384" fill="#8d887a" font-family="ui-monospace, SFMono-Regular, Menlo, Consolas, monospace" font-size="13" letter-spacing="1.3">BACKEND ENGINEERING / OPERATIONS / SOURCING / AUTOMATION / PRACTICAL EXECUTION</text>
</svg>
